<?xml version="1.0" standalone="no"?>
<!DOCTYPE svg PUBLIC "-//W3C//DTD SVG 20010904//EN"
 "http://www.w3.org/TR/2001/REC-SVG-20010904/DTD/svg10.dtd">
<svg version="1.0" xmlns="http://www.w3.org/2000/svg"
 width="500.000000pt" height="500.000000pt" viewBox="0 0 500.000000 500.000000"
 preserveAspectRatio="xMidYMid meet">
<metadata>
Created by potrace 1.14, written by Peter Selinger 2001-2017
</metadata>
<g transform="translate(0.000000,500.000000) scale(0.100000,-0.100000)"
fill="#000000" stroke="none">
<path d="M2071 4578 c-127 -298 -141 -334 -125 -343 9 -5 29 -20 43 -32 l26
-21 7 -234 c6 -234 17 -308 53 -378 22 -43 49 -53 118 -45 91 10 228 64 506
200 278 137 298 143 379 104 52 -25 84 -72 107 -154 27 -97 137 -448 148 -472
5 -12 14 -20 18 -17 5 3 6 -1 3 -9 -10 -28 81 -200 125 -234 61 -48 207 35
411 232 58 56 116 109 130 118 27 18 76 22 99 8 12 -8 43 55 159 325 81 188
141 339 136 343 -12 11 -2153 932 -2179 938 -19 4 -36 -31 -164 -329z"/>
<path d="M1060 2229 c-250 -583 -456 -1076 -458 -1096 -5 -51 4 -78 38 -117
26 -29 164 -91 1028 -461 572 -246 1015 -430 1038 -433 50 -5 106 19 133 57
16 22 231 519 906 2092 l33 75 -52 -4 c-49 -4 -96 16 -1111 452 -635 272
-1067 463 -1077 476 -9 11 -18 20 -20 20 -1 0 -208 -478 -458 -1061z m815 226
c84 -18 196 -70 279 -129 93 -67 100 -77 85 -123 -13 -41 -80 -165 -107 -199
l-17 -22 -58 26 c-56 26 -58 28 -52 57 3 16 9 60 12 96 l6 66 -44 35 c-51 41
-120 78 -146 78 -29 0 -81 -37 -98 -69 -35 -68 -9 -129 118 -275 107 -123 140
-172 168 -245 53 -141 -35 -317 -184 -367 -72 -25 -184 -22 -267 6 -118 39
-268 142 -330 227 l-30 40 55 109 c77 152 75 150 125 134 67 -22 67 -22 61
-150 l-6 -115 37 -36 c20 -20 65 -51 101 -69 l64 -34 49 25 c40 20 52 32 68
71 19 45 19 48 1 93 -10 28 -61 99 -122 173 -58 70 -119 154 -136 187 -74 146
-31 306 102 378 84 46 156 55 266 32z m941 -396 c126 -38 233 -109 299 -199
l37 -50 -26 -55 c-24 -54 -111 -195 -120 -195 -6 0 -136 60 -136 63 0 1 9 45
20 97 l20 95 -33 32 c-40 40 -144 103 -170 103 -64 0 -182 -100 -250 -212
-140 -231 -106 -485 77 -572 18 -8 92 -20 170 -27 l137 -12 -3 -61 -3 -61
-178 -3 -178 -2 -80 41 c-142 74 -222 168 -263 308 -51 175 16 409 163 563
109 116 221 166 367 167 56 1 104 -6 150 -20z"/>
</g>
</svg>
